<svg fill="var(--color-main)" height="30px" viewBox="0 0 192 192" style="fill:#423b32" width="30px" xmlns="http://www.w3.org/2000/svg"><path d="m189.823 36.118-33.941-33.941a8 8 0 0 0 -11.313 0l-130.108 130.107a8 8 0 0 0 -2.332 6.089l.482 8.916-11.378 33.322a8.071 8.071 0 0 0 10.156 10.156l33.322-11.378 6.485.35c3.123.169 6.1.217 8.52-2.2l130.107-130.108a8 8 0 0 0 0-11.313zm-138.897 127.582-4.336-.234a14.493 14.493 0 0 0 -5.581.279l-19.368 6.613 6.613-19.368c.911-2.665.256-6.009.107-8.763-.055-1.03-.129-1.087.591-1.808l2.48-2.479 22.627 22.627zm14.447-14.446-22.628-22.627 84.855-84.853 22.626 22.626zm96.166-96.167-22.627-22.626 11.314-11.314 22.627 22.627z"/></svg>