<?xml version="1.0" encoding="UTF-8" standalone="no"?>
<!-- Generator: Adobe Illustrator 17.1.0, SVG Export Plug-In . SVG Version: 6.00 Build 0)  -->

<svg
   xmlns:dc="http://purl.org/dc/elements/1.1/"
   xmlns:cc="http://creativecommons.org/ns#"
   xmlns:rdf="http://www.w3.org/1999/02/22-rdf-syntax-ns#"
   xmlns:svg="http://www.w3.org/2000/svg"
   xmlns="http://www.w3.org/2000/svg"
   xmlns:sodipodi="http://sodipodi.sourceforge.net/DTD/sodipodi-0.dtd"
   xmlns:inkscape="http://www.inkscape.org/namespaces/inkscape"
   version="1.1"
   id="paint-brush-palette"
   height="30px"
   width="30px"
   x="10px"
   y="10px"
   viewBox="0 0 1009.9824 1009.9527"
   enable-background="new 0 0 1009.9824 1009.9527"
   xml:space="preserve"
   sodipodi:docname="peinture.svg"
   inkscape:version="0.92.4 (fd57863, 2020-04-02)"><metadata
   id="metadata4606"><rdf:RDF><cc:Work
       rdf:about=""><dc:format>image/svg+xml</dc:format><dc:type
         rdf:resource="http://purl.org/dc/dcmitype/StillImage" /></cc:Work></rdf:RDF></metadata><defs
   id="defs4604" /><sodipodi:namedview
   pagecolor="#ffffff"
   bordercolor="#666666"
   borderopacity="1"
   objecttolerance="10"
   gridtolerance="10"
   guidetolerance="10"
   inkscape:pageopacity="0"
   inkscape:pageshadow="2"
   inkscape:window-width="1920"
   inkscape:window-height="950"
   id="namedview4602"
   showgrid="false"
   inkscape:zoom="15.22"
   inkscape:cx="25"
   inkscape:cy="25"
   inkscape:window-x="0"
   inkscape:window-y="27"
   inkscape:window-maximized="1"
   inkscape:current-layer="paint-brush-palette" />
<g
   id="paint-brush-palette-paint-brush-palette"
   transform="matrix(1.7485939,0,0,1.8022328,-378.0372,-405.10616)">
	<path
   d="m 758.9423,305.9107 c -3.3251,-0.9004 -8.2714,-0.1787 -3.826,-7.211 4.4697,-7.0429 11.7275,-19.0742 4.9697,-25.4326 -4.4092,-4.1714 -11.6797,-0.6797 -17.0186,-5.375 -5.3036,-4.7197 -3.3369,-16.6196 -16.7207,-22.9897 -13.3837,-6.3169 -24.9921,11.9834 -25.4209,14.8618 -0.4764,2.9018 2.8594,10.2612 11.1788,13.2051 8.2832,2.9316 8.0566,4.3857 11.5839,11.8999 3.5518,7.5083 6.5674,14.0395 11.9893,16.6494 5.4355,2.6221 6.6035,10.5176 13.1816,7.0317 6.627,-3.4805 8.1875,2.294 12.3711,7.1089 4.1953,4.791 6.2686,-0.292 6.1494,-3.7358 -0.1426,-3.4209 -4.6241,-4.958 -8.4376,-6.0127 z"
   id="path4590"
   inkscape:connector-curvature="0"
   style="fill:#423b32" />
	<path
   d="m 730.8867,307.001 c -0.3691,-0.2563 -0.7148,-0.5366 -1.1436,-0.7329 -5.4228,-2.6104 -8.4385,-9.1411 -11.9892,-16.6494 -3.5284,-7.5147 -3.2901,-8.9746 -11.5723,-11.9063 -5.1611,-1.8232 -8.3906,-5.3452 -10,-8.4438 l -34.4902,47.2846 30.4746,26.9766 z"
   id="path4592"
   inkscape:connector-curvature="0"
   style="fill:#423b32" />
	<path
   d="m 396.8447,356.395 c -128.1958,65.8887 -166.5479,192.1885 -150.959,274.3633 6.5371,34.4307 35.9385,70.6856 70.6675,55.1084 29.4429,-13.1806 47.0342,-50.1504 83.0801,-61.8896 22.3579,-7.2939 46.5278,11.6914 66.4965,42.166 32.5479,49.6738 103.7452,109.8955 215.4405,52.0693 101.8515,-52.7246 104.8066,-214.124 28.7704,-305.916 -65.954,-79.5884 -193.87,-117.3926 -313.496,-55.9014 z m -3.6294,93.0313 c -16.4888,0 -29.8482,-13.3716 -29.8482,-29.8662 0,-16.4883 13.3594,-29.8369 29.8482,-29.8369 16.4946,0 29.8667,13.3486 29.8667,29.8369 0,16.4946 -13.3721,29.8662 -29.8667,29.8662 z M 512.538,427.8789 c -21.2377,0 -38.4472,-17.2094 -38.4472,-38.4477 0,-21.2315 17.2095,-38.4473 38.4472,-38.4473 21.25,0 38.4356,17.2158 38.4356,38.4473 0,21.2383 -17.1856,38.4477 -38.4356,38.4477 z m 106.3438,266.605 c -38.1963,0 -69.1475,-30.9746 -69.1475,-69.1601 0,-38.1973 30.9512,-69.1485 69.1475,-69.1485 38.1855,0 69.124,30.9512 69.124,69.1485 0,38.1855 -30.9385,69.1601 -69.124,69.1601 z m 20.5469,-186.9394 c -28.0674,0 -50.8418,-22.7574 -50.8418,-50.854 0,-28.0904 22.7744,-50.8482 50.8418,-50.8482 28.0908,0 50.8661,22.7578 50.8661,50.8482 10e-5,28.0966 -22.7753,50.854 -50.8661,50.854 z"
   id="path4594"
   inkscape:connector-curvature="0"
   style="fill:#423b32" />
	<path
   d="m 684.4189,352.1226 -30.3076,-26.8277 -12.8233,14.7725 c 12.2393,6.1377 23.9307,13.2109 34.9668,21.1245 z"
   id="path4596"
   inkscape:connector-curvature="0"
   style="fill:#423b32" />
	<path
   d="m 404.1084,637.6831 c -16.6075,5.3985 -29.0323,17.6973 -42.1719,30.7119 -7.6748,7.6045 -15.5586,15.3506 -24.4492,21.7862 l -41.5703,47.8984 c -7.1211,8.1875 -8.67,18.6992 -3.4678,23.2998 l 3.164,2.7764 c 5.208,4.6006 15.4161,1.7646 22.6914,-6.2803 l 105.0333,-116.415 c -4.9336,-2.9317 -9.6592,-4.624 -13.9083,-4.624 -1.8291,0 -3.5751,0.2861 -5.3212,0.8466 z"
   id="path4598"
   inkscape:connector-curvature="0"
   style="fill:#423b32" />
</g>
</svg>